<svg width="20" height="23" viewBox="0 0 20 23" fill="none" xmlns="http://www.w3.org/2000/svg">
<path id="Vector" fill-rule="evenodd" clip-rule="evenodd" d="M9.51123 1.85912e-08C9.20864 -3.99439e-05 8.90958 0.0643463 8.63431 0.188795C8.35904 0.313244 8.114 0.494848 7.91579 0.721298C7.71758 0.947749 7.57084 1.21375 7.48551 1.50129C7.40019 1.78882 7.37826 2.09116 7.42123 2.38782C5.89134 2.83519 4.5486 3.76073 3.59357 5.0262C2.63853 6.29167 2.12243 7.82917 2.12234 9.40909V17.7727H1.06679C0.786835 17.7727 0.518351 17.8829 0.320395 18.0789C0.12244 18.275 0.0112305 18.5409 0.0112305 18.8182C0.0112305 19.0955 0.12244 19.3614 0.320395 19.5574C0.518351 19.7535 0.786835 19.8636 1.06679 19.8636H17.9557C18.2356 19.8636 18.5041 19.7535 18.7021 19.5574C18.9 19.3614 19.0112 19.0955 19.0112 18.8182C19.0112 18.5409 18.9 18.275 18.7021 18.0789C18.5041 17.8829 18.2356 17.7727 17.9557 17.7727H16.9001V9.40909C16.9 7.82917 16.3839 6.29167 15.4289 5.0262C14.4739 3.76073 13.1311 2.83519 11.6012 2.38782C11.6442 2.09116 11.6223 1.78882 11.5369 1.50129C11.4516 1.21375 11.3049 0.947749 11.1067 0.721298C10.9085 0.494848 10.6634 0.313244 10.3882 0.188795C10.1129 0.0643463 9.81382 -3.99439e-05 9.51123 1.85912e-08ZM11.6223 21.9545C11.6223 22.2318 11.5111 22.4977 11.3132 22.6938C11.1152 22.8899 10.8467 23 10.5668 23H8.45568C8.17572 23 7.90724 22.8899 7.70928 22.6938C7.51133 22.4977 7.40012 22.2318 7.40012 21.9545C7.40012 21.6773 7.51133 21.4114 7.70928 21.2153C7.90724 21.0192 8.17572 20.9091 8.45568 20.9091H10.5668C10.8467 20.9091 11.1152 21.0192 11.3132 21.2153C11.5111 21.4114 11.6223 21.6773 11.6223 21.9545Z" fill="#0D0D0D"/>
</svg>
