<svg width="18" height="18" viewBox="0 0 18 18" fill="none" xmlns="http://www.w3.org/2000/svg">
<g id="&#240;&#159;&#166;&#134; icon &#34;magnifying glass&#34;">
<path id="Vector" d="M7.81362 0.0222981C3.51008 0.0222981 0.00927734 3.5231 0.00927734 7.82664C0.00927734 12.1302 3.51008 15.631 7.81362 15.631C9.12921 15.631 10.4225 15.3188 11.5151 14.7168C11.6026 14.8221 11.6997 14.9191 11.805 15.0066L14.0348 17.2365C14.2407 17.4681 14.4918 17.6553 14.7726 17.7864C15.0535 17.9175 15.3581 17.9899 15.6679 17.999C15.9778 18.0081 16.2862 17.9538 16.5742 17.8394C16.8623 17.7251 17.124 17.553 17.3431 17.3338C17.5623 17.1147 17.7343 16.853 17.8487 16.565C17.9631 16.2769 18.0174 15.9685 18.0083 15.6587C17.9992 15.3489 17.9268 15.0442 17.7957 14.7633C17.6646 14.4825 17.4774 14.2314 17.2457 14.0255L15.0159 11.7957C14.9073 11.6871 14.7877 11.5899 14.6592 11.5058C15.2612 10.4132 15.6403 9.14223 15.6403 7.80434C15.6403 3.50081 12.1395 0 7.83592 0L7.81362 0.0222981ZM7.81362 2.25211C10.9131 2.25211 13.3882 4.7272 13.3882 7.82664C13.3882 9.29832 12.853 10.6585 11.9165 11.6619C11.8942 11.6842 11.8719 11.7065 11.8496 11.7288C11.7443 11.8163 11.6472 11.9134 11.5597 12.0187C10.5786 12.9106 9.2407 13.4235 7.79133 13.4235C4.69188 13.4235 2.21679 10.9484 2.21679 7.84894C2.21679 4.7495 4.69188 2.27441 7.79133 2.27441L7.81362 2.25211Z" fill="#515151"/>
</g>
</svg>
